# xmcd
#
# Track frame offsets: 
#        150
#        12874
#        25516
#        37507
#        47553
#        58823
#        67627
#        82158
#        93530
#        104989
#        115355
#        130985
#        143322
#        155300
#        169444
#        179919
#        191700
#        202863
#        214613
#        224914
#        235187
#        244353
#        255369
#        267067
#        277489
#        288550
#        300059
#        311470
#        323675
#
# Disc length: 4468 seconds
#
# Revision: 0
# Processed by: cddbd v1.5.2PL0 Copyright (c) Steve Scherf et al.
# Submitted via: ExactAudioCopyFreeDBPlugin 1.0
#
DISCID=a511721d
DTITLE=Elton Britt - The Versatile Rlton Britt
DYEAR=2012
DGENRE=Country
TTITLE0=Chime Bells (1959 Version)
TTITLE1=Roving Gambler
TTITLE2=Whoopie Ti Yi Yo
TTITLE3=The Lonesome Cowboy
TTITLE4=Red River Valley
TTITLE5=The Crawdad Song
TTITLE6=Streets Of Laredo
TTITLE7=That's How The Yodel Was Born
TTITLE8=When It's Springtime In The Rockies
TTITLE9=Red Wing
TTITLE10=Home On The Range
TTITLE11=Sod Shanty
TTITLE12=There's A Star Spangled Banner Waving Somewhere (1959 Version
TTITLE12=)
TTITLE13=I Heard A Forest Praying
TTITLE14=Twilight On The Trail
TTITLE15=The Legend Of Rocky Run
TTITLE16=That Silver Haired Daddy Of Mine
TTITLE17=Sioux City Sue
TTITLE18=When It's Prayer Meeting Time In The Hollow
TTITLE19=Taller Than Trees
TTITLE20=The Legend Of The Big Rock Candy Mountain
TTITLE21=The Unknown Soldier
TTITLE22=Fickle Woman
TTITLE23=Cattle Call
TTITLE24=The White Buffalo
TTITLE25=They Took The Stars Out Of Heaven
TTITLE26=Over The Prairie Back Home
TTITLE27=Darling Won't You Take Me Back Again
TTITLE28=Little Indian
EXTD=
EXTT0=
EXTT1=
EXTT2=
EXTT3=
EXTT4=
EXTT5=
EXTT6=
EXTT7=
EXTT8=
EXTT9=
EXTT10=
EXTT11=
EXTT12=
EXTT13=
EXTT14=
EXTT15=
EXTT16=
EXTT17=
EXTT18=
EXTT19=
EXTT20=
EXTT21=
EXTT22=
EXTT23=
EXTT24=
EXTT25=
EXTT26=
EXTT27=
EXTT28=
PLAYORDER=
